<?xml version="1.0" standalone="no"?>
<!DOCTYPE svg PUBLIC "-//W3C//DTD SVG 1.1//EN" "http://www.w3.org/Graphics/SVG/1.1/DTD/svg11.dtd" >
<svg xmlns="http://www.w3.org/2000/svg">
<metadata>Generated by IcoMoon</metadata>
<defs>
<font id="manning" horiz-adv-x="1024">
<font-face units-per-em="1024" ascent="960" descent="-64" />
<missing-glyph horiz-adv-x="1024" />
<glyph unicode="&#x20;" d="" horiz-adv-x="512" />
<glyph unicode="&#xe600;" d="M185.8 950.857h573.298v-612.77c32.916 201.915 60.992 408.518 91.495 612.77h573.383v-1001.097h-541.092v858.848c-44.087-284.254-86.641-570.267-126.441-858.848h-538.267v894.442c-58.167-295.691-110.146-597.627-167.036-894.442h-51.141c61.375 330.608 122.31 661.634 183.018 992.862-0.185 3.923-0.355 7.702 2.782 8.235z" horiz-adv-x="1434" />
<glyph unicode="&#xe601;" d="M61.878 925.177h390.487v-911.137h-390.487v911.137zM712.69 925.177h390.487v-911.137h-390.487v911.137z" horiz-adv-x="1117" />
<glyph unicode="&#xe602;" d="M870.4 438.857l-819.2-460.8v921.6z" horiz-adv-x="922" />
<glyph unicode="&#xe603;" d="M330.565 949.774h896.222v-194.090h-896.222v194.090zM330.565 537.018h896.222v-194.107h-896.222v194.107zM330.565 122.030h896.222v-194.090h-896.222v194.090zM98.299 949.774c-54.302 0-98.299-43.377-98.299-96.894 0-53.483 43.997-96.877 98.299-96.877 54.285 0 98.299 43.394 98.299 96.877 0 53.517-44.014 96.894-98.299 96.894zM98.299 537.522c-54.302 0-98.299-43.377-98.299-96.894 0-53.483 43.997-96.86 98.299-96.86 54.285 0 98.299 43.377 98.299 96.86 0 53.517-44.014 96.894-98.299 96.894zM98.299 123.457c-54.302 0-98.299-43.377-98.299-96.894 0-53.483 43.997-96.86 98.299-96.86 54.285 0 98.299 43.377 98.299 96.86 0 53.517-44.014 96.894-98.299 96.894z" horiz-adv-x="1243" />
<glyph unicode="&#xe604;" d="M547.386 796.83l-228.814-163.328c-39.137-27.819-71.118-44.971-71.118-37.973 0 6.827-39.755 12.459-88.345 12.459h-70.764c-48.501 0-88.345-38.485-88.345-85.333v-187.648c0-47.019 39.844-85.333 88.345-85.333h70.764c48.59 0 88.345 2.048 88.345 4.523s31.981-18.347 71.118-46.165l228.814-163.157c39.137-27.819 71.029-12.373 71.029 34.645v682.667c0 46.848-31.893 62.549-71.029 34.645zM823.529 506.697c23.5-15.36 39.844-40.021 39.844-69.376 0-29.44-16.344-54.101-39.844-69.461l64.492-60.843c38.607 31.317 63.697 77.824 63.697 130.304 0 52.565-25.090 98.901-63.697 130.219l-64.492-60.843zM1077.786 746.654l-63.343-59.819c69.616-62.293 113.965-150.613 113.965-249.515 0-98.816-44.349-187.136-113.965-249.429l63.343-59.904c85.165 77.909 138.967 187.221 138.967 309.333 0 122.027-53.802 231.509-138.967 309.333zM1267.993 926.025l-63.432-59.819c116.262-108.715 188.882-260.693 188.882-428.885 0-168.277-72.62-320.171-188.882-428.8l63.432-59.819c131.723 123.989 213.795 296.96 213.795 488.619s-82.073 364.715-213.795 488.704z" horiz-adv-x="1502" />
<glyph unicode="&#xe605;" d="M865.704 754.787c-96.836 78.676-281.63 163.948-411.467 143.276-12.13-1.972-13.892-20.604-5.828-29.512 89.111-98.464 217.525-173.876 353.325-191.828-5.286-10.132-9.216-21.284-12.401-29.444-7.183-18.496-11.52-37.74-13.824-57.256-94.938-24.684-248.696 20.332-335.91 14.96-82.47-5.168-160.264-25.568-227.893-74.664-139.934-101.66-175.511-267.716-127.465-423.028-18.364 12.376-40.184 20.264-59.972 11.356-22.769-10.336-30.901-39.848-18.432-59.84 31.172-49.98 71.085-73.032 92.092-82.076 22.972-9.928 49.129-14.348 73.321-5.644 2.033 0.748 4.269 1.7 6.505 2.72 6.37-4.42 13.146-8.772 20.871-12.852 54.009-28.56 313.615-13.872 354.071-12.784 42.353 1.224 81.86 9.656 81.86 35.224 0 20.876-12.13 37.128-37.542 37.128-30.833 0-138.172-2.312-167.379-1.564 53.060 34.748 93.515 89.488 109.643 148.24 10.707 2.788 75.016 20.332 88.026 24.48 22.295-41.072 44.521-82.076 66.816-123.148 15.044-32.3 57.668-100.504 61.463-100.912 4.744-8.5 10.029-13.328 21.617-14.96 12.672-1.7 107.068-4.352 113.303 9.52 10.571 23.324-21.143 65.892-96.158 65.892-0.068 0.748-21.278 71.876-32.866 106.42l-24.26 94.248c42.421 16.592 81.656 37.264 110.795 66.776 21.143 15.368 34.357 40.256 47.164 67.66 15.586 33.592 29.41 67.932 42.489 102.612 0.135 0.136 0.339 0.204 0.474 0.34 34.289 40.256 72.644 73.44 111.541 108.732 13.417 12.172 25.954 26.52 29.478 43.248 2.101 3.4 3.863 6.936 4.608 10.88 4.879 24.616-30.833 60.452-45.538 76.772-46.961 51.748-110.185 72.692-172.529 49.028z" horiz-adv-x="1088" />
<glyph unicode="&#xe606;" d="M754.526 536.381l610.807 414.476v-1024l-610.807 414.476v-414.476l-754.526 512 754.526 512v-414.476z" horiz-adv-x="1365" />
<glyph unicode="&#xe607;" d="M610.807 536.381l-610.807 414.476v-1024l610.807 414.476v-414.476l754.526 512-754.526 512v-414.476z" horiz-adv-x="1365" />
<glyph unicode="&#xe608;" d="M743.118 872.088h78.221c21.589 0 39.111-17.723 39.111-39.385v-354.462c0-87.040 70.008-157.538 156.442-157.538h117.332c13.532 0 26.126 7.089 33.244 18.59 7.196 11.737 7.822 26.23 1.721 38.361l-152.297 258.127v157.538c0 86.961-70.086 157.538-156.442 157.538h-117.332c-21.589 0-39.111-17.644-39.111-39.385 0-21.819 17.522-39.385 39.111-39.385zM1212.445 872.088c-64.845 0-117.332-52.933-117.332-118.154s52.486-118.154 117.332-118.154h39.111v236.308h-39.111zM1095.113 241.934c-86.356 0-156.442-70.577-156.442-157.538 0-87.040 70.086-157.538 156.442-157.538s156.442 70.498 156.442 157.538c0 86.961-70.086 157.538-156.442 157.538zM213.561-73.143c86.434 0 156.521 70.498 156.521 157.538h-312.885c0-87.040 70.008-157.538 156.364-157.538zM565.556 241.934c-21.433 0-28.472 14.178-15.488 31.429l153.939 204.879c0 86.961-70.086 157.538-156.442 157.538h-391.106c-43.178 0-78.221-35.21-78.221-78.769s35.043-78.769 78.221-78.769h135.401c-161.057-54.114-248.43-182.272-287.385-257.497-6.336-12.209-5.945-26.782 1.173-38.676 7.118-11.658 19.79-18.905 33.4-18.905h761.17c21.511 0 51.626 12.446 66.801 27.884l22.919 23.079c15.175 15.202 10.012 27.806-11.42 27.806h-312.963z" horiz-adv-x="1252" />
<glyph unicode="&#xe609;" d="M370.659 606.405h123.545v-123.545h-123.545v123.545zM617.687 606.405h123.545v-123.545h-123.545v123.545zM926.612 915.269c-34.16 0-61.773-27.612-61.773-61.773v-61.773h-741.272v61.773c0 34.16-27.674 61.773-61.834 61.773-34.098 0-61.711-27.612-61.711-61.773v-926.59h123.545v370.636h741.272v-370.636h123.484v926.59c0 34.16-27.612 61.773-61.711 61.773v0zM864.84 482.86h-123.545v-123.545h-123.607v123.545h-123.484v-123.545h-123.545v123.545h-123.607v-123.545h-123.484v123.545h123.484v123.545h-123.484v123.545h123.484v-123.545h123.607v123.545h123.545v-123.545h123.484v123.545h123.607v-123.545h123.545v-123.545z" />
<glyph unicode="&#xe60a;" d="M94.537 455.378l-0.158-61.951c370.993-620.999 1270.315-620.17 1643.615-0.581l0.149 62.053c-371.087 620.888-1270.315 620.17-1643.607 0.479v0zM930.972 53.23c-205.666 0.351-371.856 167.334-371.489 372.796 0.453 205.674 167.232 371.848 372.898 371.497 205.462-0.367 371.84-167.13 371.497-372.898-0.477-205.368-167.436-371.864-372.906-371.395v0zM917.074 610.915c-102.493-8.066-178.963-97.491-170.881-200.187 8.058-102.391 97.593-178.955 200.085-170.889 102.391 8.058 178.947 97.695 170.889 200.085-8.082 102.697-97.703 179.049-200.093 170.991z" horiz-adv-x="1741" />
<glyph unicode="&#xe60b;" d="M477.867 950.857c-263.902 0-477.867-188.838-477.867-421.647 0-110.351 48.563-210.522 127.172-285.696l-127.172-256.422 299.742 151.070c55.074-19.576 115.106-30.6 178.125-30.6 264.021 0 477.867 188.777 477.867 421.647 0 232.809-213.845 421.647-477.867 421.647z" horiz-adv-x="956" />
<glyph unicode="&#xe60c;" d="M512 950.857c136.997 0 266.971-55.515 361.911-150.089l150.089 150.089v-438.857h-438.857l185.344 185.344c-67.803 67.584-160.695 107.227-258.487 107.227-201.655 0-365.714-164.059-365.714-365.714s164.059-365.714 365.714-365.714c130.121 0 251.465 70.071 316.782 182.93l126.61-73.289c-91.282-157.842-261.266-255.927-443.392-255.927-282.331 0-512 229.742-512 512s229.669 512 512 512z" />
<glyph unicode="&#xe60d;" d="M735.618 950.857c-160.312 0-290.42-129.979-290.42-290.42 0-44.725 10.971-86.674 29.042-124.493l-455.314-455.443c-25.234-25.234-25.234-66.087 0-91.256l45.628-45.628c12.133-12.133 28.461-18.91 45.628-18.91s33.56 6.776 45.628 18.91l101.453 101.453 92.805-92.934c12.069-12.069 28.461-18.91 45.628-18.91s33.495 6.776 45.628 18.91l22.782 22.782c25.234 25.234 25.234 66.087 0 91.256l-92.87 92.999 239.887 239.887c37.948-18.071 79.769-29.042 124.493-29.042 160.506 0 290.42 130.044 290.42 290.42 0 160.441-129.915 290.42-290.42 290.42v0zM735.618 499.092c-88.998 0-161.345 72.411-161.345 161.345 0 88.998 72.347 161.345 161.345 161.345s161.345-72.347 161.345-161.345c0-88.933-72.347-161.345-161.345-161.345v0z" />
<glyph unicode="&#xe60e;" d="M1007.985 950.857l-537.272-568.269-282.481 298.778-188.232-199.091 470.712-497.869 725.637 767.36-188.365 199.091z" horiz-adv-x="1229" />
<glyph unicode="&#xe60f;" d="M666.937 54.855h-545.676v575.991h275.809l121.261 127.998h-412.106c-58.63 0-106.225-50.175-106.225-112.062v-607.863c0-61.951 47.595-112.062 106.225-112.062h575.87c58.63 0 106.104 50.111 106.104 112.062v461.817l-121.261-128.062v-317.819zM281.69 420.993l-60.509-255.996 242.523 63.999-182.013 191.997zM668.695 827.067l-342.927-361.978 171.463-181.053 342.927 362.042-171.463 180.989zM952.325 841.595l-85.732 90.495c-23.707 25.024-62.086 25.024-85.732 0l-42.866-45.247 171.463-180.989 42.866 45.247c23.707 24.96 23.707 65.471 0 90.495z" horiz-adv-x="970" />
<glyph unicode="&#xe610;" d="M603.974 366.583h-603.974v185.996h603.974l-236.079 236.172 131.631 131.631 460.707-460.707-460.707-460.893-131.631 131.631 236.079 236.172z" />
<glyph unicode="&#xe611;" d="M0-73.143h1196.883l-598.442 910.222-598.442-910.222z" horiz-adv-x="1317" />
<glyph unicode="&#xe612;" d="M0 950.857h1196.883l-598.442-910.222-598.442 910.222z" horiz-adv-x="1317" />
<glyph unicode="&#xe613;" d="M896 438.857c0 24.512-2.56 48.384-6.912 71.68l134.912 119.68-169.984 191.488-97.664-86.656c-34.24 28.288-73.664 50.304-116.352 65.408v150.4h-256v-150.4c-42.688-15.104-82.112-37.12-116.352-65.408l-97.664 86.656-169.984-191.488 134.912-119.68c-4.352-23.296-6.912-47.168-6.912-71.68 0-24.576 2.56-48.512 6.912-71.744l-134.912-119.744 169.984-191.424 97.664 86.656c34.24-28.224 73.664-50.368 116.352-65.472v-150.272h256v150.272c42.688 15.104 82.112 37.248 116.352 65.472l97.664-86.656 169.984 191.424-134.912 119.744c4.352 23.232 6.912 47.168 6.912 71.744v0zM512 246.857c-105.856 0-192 86.144-192 192s86.144 192 192 192c105.856 0 192-86.144 192-192s-86.144-192-192-192v0z" />
<glyph unicode="&#xe614;" d="M553.798 585.688v-603.974h-185.996v603.974l-236.172-236.079-131.631 131.631 460.707 460.707 460.893-460.707-131.631-131.631-236.172 236.079z" horiz-adv-x="939" />
<glyph unicode="&#xe615;" d="M384.869 316.407v603.974h185.996v-603.974l236.172 236.079 131.631-131.631-460.707-460.707-460.893 460.707 131.631 131.631 236.172-236.079z" horiz-adv-x="939" />
</font>
</defs>
</svg>
